<svg xmlns="http://www.w3.org/2000/svg" width="525" height="525" viewBox="0 0 138.906 138.906"><defs><filter style="color-interpolation-filters:sRGB" id="b" x="-.024" width="1.049" y="-.156" height="1.312"><feGaussianBlur stdDeviation="1.105"/></filter><filter style="color-interpolation-filters:sRGB" id="a" x="-.024" width="1.049" y="-.156" height="1.312"><feGaussianBlur stdDeviation="1.105"/></filter></defs><g style="display:inline"><path style="fill:#7b4173;fill-opacity:0;stroke:none;stroke-width:0;stroke-miterlimit:4;stroke-dasharray:none;stroke-opacity:0" fill="none" d="M41.198-129.344h198.6v200h-198.6z" transform="translate(116.302 -89.25)"/><path style="fill:#ececec;fill-opacity:0;stroke:none;stroke-width:125;stroke-miterlimit:4;stroke-dasharray:none;stroke-opacity:0" d="M318.999-50.034c-2.014 1.496-4.273 2.338-6.49 3.4-.932.446-1.848.924-2.772 1.387-.543.273-1.09.536-1.628.818-.553.29-1.097.596-1.643.898-.53.294-2.18 1.01-1.585.89.637-.127 1.07-.91 1.72-.917.52-.006-.853.595-1.264.913-.388.3-.755.628-1.133.942-1.667 1.489-2.796 3.408-3.688 5.432-.53 1.194-.642 2.479-.696 3.767.047 1.102.057 2.36.667 3.334.144.229.339.42.508.631.252.198.485.423.755.594 1.948 1.23 4.352 1.493 6.584 1.748 2.298.196 4.605.214 6.905.37.537.036 1.077.046 1.609.126.49.073.967.222 1.451.334.432.21.89.371 1.294.629 2.289 1.457 3.112 4.188 3.851 6.632.602 2.225.888 4.526.607 6.823-.048.387-.129.769-.193 1.153-.677 2.916-2.043 5.61-3.212 8.348a223.611 223.611 0 0 0-3.354 8.096c-.447 1.123-.907 2.246-1.447 3.328l-3.567 1.61a35.6 35.6 0 0 0 1.58-3.35c1.118-2.733 2.27-5.45 3.46-8.153 1.13-2.706 2.426-5.37 3.147-8.224.19-1.019.264-1.25.332-2.293.122-1.882-.122-3.743-.596-5.565-.691-2.345-1.494-4.99-3.723-6.346-.388-.236-.826-.377-1.24-.566-.467-.102-.928-.236-1.402-.305-.524-.077-1.055-.097-1.583-.133-2.313-.16-4.634-.167-6.944-.37-2.307-.274-4.771-.584-6.776-1.869-.294-.188-.546-.435-.82-.652-.191-.235-.412-.45-.576-.705-.65-1.013-.689-2.33-.76-3.486.035-1.333.112-2.671.66-3.91.903-2.08 2.051-4.067 3.718-5.633.75-.641 1.571-1.389 2.41-1.915a112.523 112.523 0 0 1 9.454-5.33 160.734 160.734 0 0 1 3.973-1.952c.306-.144.612-.29.917-.437.234-.114.92-.483.7-.347-.943.577-1.91 1.115-2.864 1.673L319-50.034z" fill="none" transform="translate(116.302 -89.25)"/><path style="fill:red;stroke:#3a6b35;stroke-width:23.98015594;stroke-linecap:butt;stroke-linejoin:miter;stroke-miterlimit:4;stroke-dasharray:none;stroke-opacity:1" d="m22.112 12.428 135.448-.05" transform="translate(-20.492 112.64)"/><path style="fill:none;stroke:#fee77a;stroke-width:87.76904297;stroke-linecap:butt;stroke-linejoin:miter;stroke-miterlimit:4;stroke-dasharray:none;stroke-opacity:.5041322" d="M22.107-43.235h135.467" transform="translate(-20.492 112.64)"/><text xml:space="preserve" style="font-style:normal;font-weight:400;font-size:92.30177307px;line-height:1.25;font-family:sans-serif;letter-spacing:0;word-spacing:0;fill:#000;fill-opacity:1;stroke:none;stroke-width:1.00800002;stroke-miterlimit:4;stroke-dasharray:none" x="18.663" y="-10.985" transform="matrix(1.04874 0 0 .95353 -20.492 112.64)"><tspan x="18.663" y="-10.985" style="font-style:normal;font-variant:normal;font-weight:700;font-stretch:normal;font-size:92.30177307px;font-family:sans-serif;-inkscape-font-specification:'sans-serif, Bold';font-variant-ligatures:normal;font-variant-caps:normal;font-variant-numeric:normal;font-feature-settings:normal;text-align:start;writing-mode:lr-tb;text-anchor:start;fill:#623412;fill-opacity:1;stroke:#b80f0a;stroke-width:1.00800002;stroke-miterlimit:4;stroke-dasharray:none;stroke-opacity:1">CC</tspan></text><path style="fill:none;fill-opacity:0;stroke:#b80f0a;stroke-width:23.98015594;stroke-linecap:butt;stroke-linejoin:miter;stroke-miterlimit:4;stroke-dasharray:none;stroke-opacity:1" d="M22.107-99.058h135.467" transform="translate(-20.492 112.64)"/><text xml:space="preserve" style="font-style:normal;font-weight:400;font-size:22.39125061px;line-height:1.25;font-family:sans-serif;letter-spacing:0;word-spacing:0;fill:#fee77a;fill-opacity:.50588223;stroke:#f2f2f2;stroke-width:.71976203;stroke-miterlimit:4;stroke-dasharray:none;stroke-opacity:.32663317;filter:url(#a)" x="59.608" y="-135.986" transform="matrix(.89812 0 0 .53731 -32.608 91.023)"><tspan x="59.608" y="-135.986" style="font-style:normal;font-variant:normal;font-weight:700;font-stretch:normal;font-size:22.39125061px;font-family:sans-serif;-inkscape-font-specification:'sans-serif, Bold';font-variant-ligatures:normal;font-variant-caps:normal;font-variant-numeric:normal;font-feature-settings:normal;text-align:start;writing-mode:lr-tb;text-anchor:start;fill:#fee77a;fill-opacity:.50588223;stroke:#f2f2f2;stroke-width:.71976203;stroke-miterlimit:4;stroke-dasharray:none;stroke-opacity:.32663317">Con<tspan style="font-style:normal;font-variant:normal;font-weight:700;font-stretch:normal;font-size:22.39125061px;font-family:sans-serif;-inkscape-font-specification:'sans-serif, Bold';font-variant-ligatures:normal;font-variant-caps:all-small-caps;font-variant-numeric:normal;font-feature-settings:normal;text-align:start;writing-mode:lr-tb;text-anchor:start;fill:#fee77a;fill-opacity:.50588223;stroke:#f2f2f2;stroke-width:.71976203;stroke-miterlimit:4;stroke-dasharray:none;stroke-opacity:.32663317">G</tspan>oCC</tspan></text><text xml:space="preserve" style="font-style:normal;font-weight:400;font-size:22.39125061px;line-height:1.25;font-family:sans-serif;letter-spacing:0;word-spacing:0;display:inline;fill:#fee77a;fill-opacity:.50588223;stroke:#f2f2f2;stroke-width:.73318946;stroke-miterlimit:4;stroke-dasharray:none;stroke-opacity:.32663317;filter:url(#b)" x="59.608" y="-135.986" transform="matrix(.89874 0 0 -.51746 -32.644 50.551)"><tspan x="59.608" y="-135.986" style="font-style:normal;font-variant:normal;font-weight:700;font-stretch:normal;font-size:22.39125061px;font-family:sans-serif;-inkscape-font-specification:'sans-serif, Bold';font-variant-ligatures:normal;font-variant-caps:normal;font-variant-numeric:normal;font-feature-settings:normal;text-align:start;writing-mode:lr-tb;text-anchor:start;fill:#fee77a;fill-opacity:.50588223;stroke:#f2f2f2;stroke-width:.73318946;stroke-miterlimit:4;stroke-dasharray:none;stroke-opacity:.32663317">Con<tspan style="font-style:normal;font-variant:normal;font-weight:700;font-stretch:normal;font-size:22.39125061px;font-family:sans-serif;-inkscape-font-specification:'sans-serif, Bold';font-variant-ligatures:normal;font-variant-caps:all-small-caps;font-variant-numeric:normal;font-feature-settings:normal;text-align:start;writing-mode:lr-tb;text-anchor:start;fill:#fee77a;fill-opacity:.50588223;stroke:#f2f2f2;stroke-width:.73318946;stroke-miterlimit:4;stroke-dasharray:none;stroke-opacity:.32663317">G</tspan>oCC</tspan></text></g></svg>